<?xml version="1.0" encoding="utf-8"?>
<svg version="1.1" xmlns:xlink="http://www.w3.org/1999/xlink" width="73px" height="73px" xmlns="http://www.w3.org/2000/svg">
  <g transform="matrix(1 0 0 1 -152 -74 )">
    <path d="M 188.5 74  C 208.94 74  225 90.06  225 110.5  C 225 130.94  208.94 147  188.5 147  C 168.06 147  152 130.94  152 110.5  C 152 90.06  168.06 74  188.5 74  Z " fill-rule="nonzero" fill="#ffffff" stroke="none" />
    <path d="M 188.5 74.5  C 208.66 74.5  224.5 90.34  224.5 110.5  C 224.5 130.66  208.66 146.5  188.5 146.5  C 168.34 146.5  152.5 130.66  152.5 110.5  C 152.5 90.34  168.34 74.5  188.5 74.5  Z " stroke-width="1" stroke="#797979" fill="none" />
  </g>
</svg>