<?xml version="1.0" encoding="utf-8"?>
<svg version="1.1" xmlns:xlink="http://www.w3.org/1999/xlink" width="171px" height="151px" xmlns="http://www.w3.org/2000/svg">
  <g transform="matrix(1 0 0 1 -1088 -124 )">
    <path d="M 1088 124  L 1259 124  L 1259 275  L 1088 275  L 1088 124  " fill-rule="nonzero" fill="#cccccc" stroke="none" />
    <path d="M 1099 135  L 1248 135  L 1248 264  L 1099 264  L 1099 135  " fill-rule="nonzero" fill="#ffffff" stroke="none" />
    <path d="M 1188.245 169.3  C 1181.903 169.3  1176.92 164.317  1176.92 157.975  C 1176.92 151.633  1181.903 146.65  1188.245 146.65  C 1194.587 146.65  1199.57 151.633  1199.57 157.975  C 1199.57 164.317  1194.587 169.3  1188.245 169.3  " fill-rule="nonzero" fill="#cccccc" stroke="none" />
    <path d="M 1103 260  L 1103 193.45  L 1138.25 163.2  L 1187.6 195.891228070175  L 1215.8 181.35  L 1244 195.891228070175  L 1244 260  L 1103 260  " fill-rule="nonzero" fill="#169bd5" stroke="none" />
  </g>
</svg>