<?xml version="1.0" encoding="utf-8"?>
<svg version="1.1" xmlns:xlink="http://www.w3.org/1999/xlink" width="52px" height="52px" xmlns="http://www.w3.org/2000/svg">
  <g transform="matrix(1 0 0 1 -30 -140 )">
    <path d="M 56 140  C 70.56 140  82 151.44  82 166  C 82 180.56  70.56 192  56 192  C 41.44 192  30 180.56  30 166  C 30 151.44  41.44 140  56 140  Z " fill-rule="nonzero" fill="#ffffff" stroke="none" />
    <path d="M 56 140.5  C 70.28 140.5  81.5 151.72  81.5 166  C 81.5 180.28  70.28 191.5  56 191.5  C 41.72 191.5  30.5 180.28  30.5 166  C 30.5 151.72  41.72 140.5  56 140.5  Z " stroke-width="1" stroke="#797979" fill="none" />
  </g>
</svg>